<?xml version="1.0" standalone="no"?>
<!DOCTYPE svg PUBLIC "-//W3C//DTD SVG 20010904//EN"
 "http://www.w3.org/TR/2001/REC-SVG-20010904/DTD/svg10.dtd">
<svg version="1.0" xmlns="http://www.w3.org/2000/svg"
 width="735.000000pt" height="956.000000pt" viewBox="0 0 735.000000 956.000000"
 preserveAspectRatio="xMidYMid meet">

<g transform="translate(0.000000,956.000000) scale(0.100000,-0.100000)"
fill="#000000" stroke="none">
<path d="M154 8523 c4 -10 11 -49 16 -88 31 -239 90 -429 225 -717 30 -65 28
-84 -14 -138 -16 -19 -36 -50 -45 -69 -19 -37 -60 -243 -71 -361 -4 -41 -15
-102 -25 -135 -10 -33 -21 -78 -25 -100 -4 -21 -13 -52 -22 -68 -17 -35 -16
-41 51 -232 61 -173 155 -359 267 -530 135 -206 139 -215 139 -365 0 -69 4
-130 8 -135 4 -6 32 -29 63 -53 97 -73 214 -231 289 -388 99 -207 115 -237
151 -277 l37 -42 101 2 c106 3 160 14 312 63 50 17 98 30 106 30 28 0 137 -53
198 -96 33 -23 102 -80 152 -127 66 -61 102 -86 125 -89 32 -5 264 38 360 67
26 8 85 30 129 51 45 20 98 38 118 41 l36 5 52 -156 c29 -85 82 -221 119 -302
l66 -147 -6 -76 c-18 -210 -77 -445 -211 -851 -219 -661 -249 -823 -293 -1627
-10 -166 -14 -315 -9 -332 14 -56 94 -81 308 -96 l96 -7 17 -36 c16 -32 16
-49 5 -182 -15 -177 -12 -195 39 -210 52 -16 311 -25 344 -12 30 12 27 5 59
210 18 121 25 147 45 165 13 12 28 34 33 50 11 29 42 37 61 15 37 -44 60 -96
74 -165 9 -43 28 -115 41 -160 31 -100 37 -103 210 -103 144 0 155 6 155 86 0
27 7 97 16 156 14 91 20 108 37 114 11 4 32 19 46 35 24 26 36 30 126 39 208
21 367 56 400 86 24 22 25 28 25 146 0 209 -33 484 -100 851 -37 199 -96 606
-109 757 -6 63 -13 198 -17 300 -6 169 -4 191 15 260 26 93 26 116 1 132 -18
11 -20 23 -20 108 0 52 4 111 9 130 5 19 41 152 80 295 87 317 118 466 129
616 6 93 10 113 22 110 160 -42 251 -42 381 -2 52 15 116 32 144 36 50 7 97
26 125 51 8 7 64 33 124 58 99 42 148 70 188 109 7 7 46 35 87 62 101 68 229
195 286 285 26 41 86 113 133 160 112 111 154 169 232 323 51 101 64 136 63
170 -1 50 3 57 151 235 147 177 206 253 206 265 0 6 -8 19 -17 29 -15 17 -15
23 15 96 47 117 55 151 49 197 -6 38 0 55 53 156 72 139 119 277 126 367 l5
67 -25 -90 c-41 -152 -87 -262 -176 -415 -52 -90 -110 -202 -110 -214 0 -11
59 66 85 112 11 17 23 32 28 32 14 0 -2 -58 -49 -175 -49 -122 -51 -133 -29
-141 26 -10 17 -31 -51 -111 -113 -134 -228 -275 -261 -322 -27 -38 -31 -51
-27 -86 5 -35 0 -53 -40 -128 -88 -169 -129 -227 -244 -350 -65 -68 -133 -150
-152 -182 -41 -66 -178 -200 -266 -259 -34 -23 -85 -60 -115 -83 -30 -22 -99
-60 -154 -83 -55 -22 -116 -52 -135 -65 -42 -29 -83 -45 -114 -45 -13 0 -67
-13 -119 -29 -142 -44 -197 -48 -315 -21 l-99 23 -7 96 c-10 129 -39 261 -73
323 -37 67 -111 124 -186 141 l-57 13 70 66 c60 56 72 63 80 49 8 -13 9 -11
10 11 0 24 21 56 73 113 32 34 175 234 223 312 25 40 52 73 60 73 22 0 18 -76
-6 -109 -60 -85 -56 -298 7 -352 83 -73 138 45 113 244 -12 99 -25 134 -51
142 -11 4 -21 20 -25 41 -5 28 -2 37 17 53 21 17 24 30 30 127 5 83 13 129 36
195 17 47 40 128 52 180 37 163 71 246 119 301 48 53 193 164 397 303 446 305
578 402 950 698 171 136 269 223 405 359 112 112 133 123 168 82 23 -26 24
-34 19 -104 -6 -73 -37 -225 -76 -365 -11 -38 -18 -71 -17 -73 7 -7 48 104 66
180 68 288 61 398 -26 398 -31 0 -47 -10 -113 -74 -274 -264 -697 -605 -1061
-856 -622 -429 -649 -449 -731 -537 -51 -54 -79 -119 -111 -253 -11 -47 -36
-137 -55 -200 l-35 -115 -27 74 c-17 50 -35 81 -53 94 l-28 21 -25 -24 c-36
-34 -48 -90 -43 -202 4 -79 10 -106 33 -153 23 -49 26 -61 16 -83 -26 -56
-256 -382 -281 -397 -15 -9 -11 25 10 85 11 30 19 74 20 98 0 29 4 42 14 42
37 0 81 85 132 254 35 117 40 170 19 210 -16 30 -16 37 -2 102 22 96 40 254
35 303 -6 72 9 29 36 -98 14 -69 28 -127 31 -129 15 -15 1 118 -25 254 -29
145 -47 209 -100 346 -21 54 -22 59 -6 92 9 19 16 41 16 50 0 11 9 16 30 16
39 0 90 21 113 47 43 48 29 153 -30 230 -34 44 -34 46 -19 78 53 110 -34 256
-151 255 -21 -1 -49 -7 -63 -15 -36 -20 -47 -18 -54 9 -9 37 -56 87 -101 107
-52 24 -99 23 -153 -1 -34 -15 -47 -29 -63 -66 -12 -25 -19 -55 -16 -65 4 -15
-6 -24 -45 -44 -27 -14 -59 -31 -70 -39 -17 -12 -26 -11 -71 9 -110 48 -273
75 -453 75 l-102 0 -50 55 c-28 30 -65 81 -83 112 -18 31 -35 51 -37 44 -9
-26 10 -122 33 -168 14 -26 23 -48 22 -49 -1 -1 -56 -9 -122 -18 -127 -18
-242 -52 -314 -92 -24 -13 -44 -23 -45 -22 -16 43 -40 67 -91 94 -50 25 -60
35 -66 63 -14 69 -98 118 -179 105 -64 -11 -108 -44 -136 -100 l-25 -51 -37
18 c-20 11 -51 19 -70 19 -114 0 -202 -155 -147 -259 16 -31 15 -33 -11 -64
-38 -45 -64 -111 -64 -163 0 -36 6 -51 34 -81 30 -33 39 -37 95 -41 62 -4 62
-5 78 -44 9 -23 27 -45 45 -54 33 -17 33 -19 -14 -127 -16 -38 -36 -101 -45
-140 -21 -98 -20 -329 1 -483 10 -70 16 -162 14 -218 -2 -53 0 -96 4 -96 4 0
13 9 21 20 13 19 15 14 22 -57 8 -95 34 -159 69 -173 22 -8 25 -13 19 -42 -3
-18 -15 -45 -26 -60 -18 -24 -19 -37 -13 -110 10 -137 49 -251 91 -270 50 -23
95 39 95 129 0 71 -45 198 -84 237 -45 44 -55 104 -21 128 l23 18 37 -110 c35
-106 133 -325 141 -317 2 2 0 35 -6 73 -14 99 -12 106 14 44 34 -82 66 -142
92 -173 24 -28 24 -28 24 -5 0 20 4 18 40 -22 35 -39 39 -41 30 -17 -6 16 -10
30 -10 32 0 2 66 -27 148 -64 81 -38 156 -72 167 -76 17 -7 16 -9 -14 -17 -28
-8 -44 -5 -92 16 -97 42 -163 50 -360 43 -170 -6 -185 -5 -277 19 -129 33
-180 60 -205 107 -19 36 -30 194 -48 687 -2 53 2 75 24 121 42 86 53 199 33
312 -32 171 -105 275 -238 336 -40 18 -81 38 -91 43 -32 16 -29 3 13 -60 22
-33 49 -84 59 -114 39 -114 50 -258 18 -244 -7 2 -65 27 -129 55 -206 89 -248
113 -443 265 -122 95 -140 111 -375 336 -113 108 -252 239 -309 290 -57 52
-124 119 -148 149 -130 164 -260 393 -303 536 -35 114 -82 235 -93 235 -5 0
-6 -8 -3 -17z m2534 -534 c-3 -8 -7 -3 -11 10 -4 17 -3 21 5 13 5 -5 8 -16 6
-23z m-431 -25 c-3 -3 -12 -4 -19 -1 -8 3 -5 6 6 6 11 1 17 -2 13 -5z m1663
-74 c65 -23 75 -29 45 -26 -22 3 -78 8 -125 11 l-85 5 45 -15 c25 -8 61 -20
80 -26 97 -32 171 -73 186 -103 l15 -31 -20 23 c-11 13 -25 21 -31 17 -5 -3
-10 -2 -10 3 0 15 -70 43 -203 82 -71 21 -134 43 -140 49 -9 9 -8 11 6 6 9 -4
25 -4 34 -1 14 6 13 10 -12 27 l-30 21 80 -6 c53 -3 108 -15 165 -36z m-780
-19 c0 -13 -64 -66 -175 -146 -53 -38 -124 -96 -158 -127 -33 -32 -63 -56 -65
-53 -8 8 113 142 203 223 86 79 195 136 195 103z m1082 -43 c6 -40 -19 -67
-38 -42 -18 23 0 73 27 74 4 0 9 -15 11 -32z m-1491 1 c15 -29 4 -94 -26 -146
-14 -23 -22 -48 -19 -56 9 -25 -19 -66 -66 -97 -24 -16 -46 -27 -48 -25 -3 3
12 23 32 46 40 43 42 67 3 32 -46 -42 -46 -32 3 64 28 54 55 116 61 138 18 66
39 82 60 44z m1596 -23 c0 -6 3 -24 7 -41 l6 -30 -11 30 c-7 17 -16 35 -20 41
-5 6 -4 11 4 11 8 0 14 -5 14 -11z m95 -33 c24 -27 63 -69 89 -95 25 -26 44
-50 42 -52 -10 -10 -96 55 -132 100 -76 97 -76 132 1 47z m-1808 20 c-8 -30
-173 -243 -188 -243 -2 0 0 17 5 38 15 55 108 189 144 207 39 19 44 19 39 -2z
m636 10 c0 -5 -14 -16 -30 -25 -38 -21 -40 -9 -2 14 31 20 32 20 32 11z m-804
-83 c-3 -17 -17 -47 -32 -68 l-26 -37 7 40 c8 47 31 95 47 95 6 0 8 -11 4 -30z
m1889 -91 c28 -35 73 -87 102 -117 28 -30 51 -62 50 -72 -1 -10 -6 -16 -12
-13 -67 38 -133 118 -189 234 -38 76 -36 75 49 -32z m-423 70 c98 -24 222 -86
262 -129 16 -17 56 -50 89 -72 83 -57 137 -107 137 -129 0 -10 10 -25 22 -33
12 -9 18 -16 13 -16 -6 0 -3 -6 5 -13 23 -18 46 -70 90 -204 39 -116 59 -241
60 -358 0 -56 -17 -26 -26 45 -13 110 -98 368 -165 502 -21 42 -34 78 -28 80
16 5 -14 38 -40 43 -14 2 -27 8 -30 13 -3 4 -38 28 -78 54 -40 25 -69 48 -65
52 3 4 -1 4 -11 0 -11 -4 -17 -1 -17 9 0 10 -7 14 -22 10 -19 -4 -20 -3 -8 7
12 10 11 11 -8 7 -12 -3 -20 -2 -17 3 3 4 -10 14 -28 21 -17 7 -35 18 -39 24
-4 7 -45 22 -90 35 -226 61 -246 70 -149 70 34 0 99 -9 143 -21z m583 -134 c0
-7 6 -20 14 -29 24 -28 6 -27 -25 2 -27 25 -104 141 -104 157 0 3 26 -22 58
-56 31 -34 57 -68 57 -74z m-576 41 c109 -30 67 -32 -101 -4 -37 6 -65 15 -62
20 7 12 91 3 163 -16z m-950 -13 c-13 -15 -28 -31 -34 -35 -6 -5 -4 -8 5 -8
11 -1 9 -6 -7 -19 -13 -11 -23 -24 -23 -30 0 -5 -6 -14 -14 -18 -23 -14 -185
-192 -237 -261 -47 -64 -69 -91 -131 -164 -26 -30 -28 -31 -28 -10 0 12 4 22
9 22 5 0 11 13 14 29 19 92 223 335 402 480 58 46 79 53 44 14z m-139 -3 c0
-5 -5 -10 -11 -10 -5 0 -7 5 -4 10 3 6 8 10 11 10 2 0 4 -4 4 -10z m293 -171
c-4 -12 -36 -81 -74 -153 -64 -125 -169 -356 -169 -373 0 -4 -10 -20 -23 -35
-12 -15 -30 -39 -40 -53 -11 -15 -21 -24 -24 -22 -4 4 6 49 23 110 3 9 1 17
-5 17 -6 0 -11 -9 -11 -20 0 -11 -12 -46 -27 -77 -34 -71 -32 -68 -39 -60 -9
8 48 195 90 297 36 86 49 98 21 20 -8 -24 -17 -55 -20 -69 -2 -14 -7 -38 -11
-53 -17 -80 37 16 159 282 29 63 61 114 96 153 29 31 54 57 56 57 2 0 1 -10
-2 -21z m-527 -32 c-14 -19 -26 -40 -26 -47 0 -7 -3 -10 -7 -7 -3 4 -14 -10
-23 -31 -10 -20 -31 -50 -48 -67 -17 -16 -32 -36 -32 -42 0 -14 -20 -18 -20
-5 0 18 72 127 121 183 54 63 79 74 35 16z m1496 1 c80 -43 196 -153 257 -243
27 -41 52 -71 57 -67 4 4 4 2 0 -5 -3 -7 2 -38 13 -70 24 -71 54 -267 49 -320
-3 -31 -5 -35 -12 -18 -5 11 -14 27 -21 35 -6 8 -22 42 -35 75 -35 87 -98 206
-126 236 -13 14 -22 28 -18 32 3 3 2 12 -2 19 -5 7 -9 15 -9 18 -1 11 -53 86
-69 99 -9 7 -16 19 -16 25 0 8 2 8 8 -1 4 -6 20 -15 35 -18 l28 -7 -21 33
c-20 33 -69 84 -162 167 -57 51 -40 55 44 10z m-187 -7 c141 -82 247 -200 330
-366 55 -110 74 -172 32 -104 -22 37 -93 119 -102 119 -11 0 -3 -22 27 -69 17
-28 29 -54 26 -57 -10 -9 -76 120 -67 131 15 16 10 28 -6 15 -18 -15 -16 -17
-48 43 -14 28 -27 43 -30 35 -3 -7 -6 -3 -6 10 -1 12 -5 22 -10 22 -5 0 -13 9
-16 21 -4 11 -54 67 -112 125 -109 108 -115 131 -18 75z m450 9 c3 -5 1 -10
-4 -10 -6 0 -11 5 -11 10 0 6 2 10 4 10 3 0 8 -4 11 -10z m-1472 -89 c-5 -3
-10 -19 -11 -36 -2 -16 -8 -34 -13 -39 -5 -6 -9 -17 -9 -27 0 -9 -8 -27 -19
-40 -10 -13 -44 -73 -76 -134 -67 -128 -61 -119 -73 -111 -6 3 -7 19 -2 38 21
82 114 299 132 306 4 2 8 8 8 13 0 6 12 25 27 44 27 33 28 34 36 13 4 -12 4
-24 0 -27z m1664 -21 c6 -8 18 -24 27 -35 15 -20 15 -20 9 3 -3 12 -1 22 5 22
14 0 43 -65 49 -108 11 -88 19 -177 16 -181 -6 -8 -32 33 -44 69 -7 19 -25 64
-42 100 -32 72 -67 158 -67 167 0 7 32 -18 47 -37z m-1418 -37 c-35 -95 -133
-313 -140 -313 -12 0 -11 4 6 78 16 69 50 142 98 214 36 53 52 62 36 21z m788
-52 c67 -27 241 -246 316 -396 33 -67 78 -182 92 -235 5 -19 0 -16 -21 15 -15
22 -34 46 -41 53 -7 7 -24 36 -38 65 -15 29 -33 59 -41 68 -8 8 -14 19 -14 24
0 5 7 0 15 -11 23 -30 17 0 -9 51 -45 84 -116 174 -217 275 -59 58 -98 104
-93 111 4 6 9 7 13 2 3 -5 21 -15 38 -22z m-1037 -35 c0 -3 -4 -8 -10 -11 -5
-3 -10 -1 -10 4 0 6 5 11 10 11 6 0 10 -2 10 -4z m1016 -52 c43 -30 84 -64 92
-75 7 -11 19 -16 25 -13 7 4 9 4 5 -1 -4 -4 13 -27 38 -51 24 -24 44 -47 44
-52 0 -4 11 -20 25 -35 14 -15 23 -27 20 -27 -3 0 -1 -9 5 -21 16 -28 6 -35
-17 -12 -11 10 -71 65 -134 123 -204 187 -234 220 -195 220 8 0 50 -25 92 -56z
m-672 -111 c-42 -148 -76 -236 -133 -348 -22 -44 -41 -88 -41 -97 0 -9 -4 -19
-9 -23 -14 -8 -17 67 -8 150 16 143 94 405 120 405 5 0 6 -23 2 -51 -5 -36 -4
-50 3 -45 6 4 9 13 5 21 -3 9 1 15 10 15 8 0 20 14 27 30 7 17 15 30 19 30 4
0 13 17 21 38 9 25 15 31 18 20 2 -10 -13 -75 -34 -145z m509 68 c15 -8 27
-18 27 -23 0 -5 5 -6 10 -3 8 5 7 11 -1 21 -22 27 -1 26 48 0 91 -51 318 -290
291 -308 -7 -4 -8 -8 -3 -8 6 0 4 -4 -4 -9 -13 -8 -13 -12 -1 -26 8 -10 19
-25 25 -35 5 -10 29 -47 52 -81 23 -35 40 -65 37 -68 -3 -3 -8 -1 -12 4 -4 6
-25 23 -47 40 -22 16 -85 72 -139 123 -54 51 -140 126 -190 166 -92 73 -176
162 -176 187 0 10 3 10 12 1 7 -7 18 -12 25 -12 8 0 24 -10 36 -21 38 -37 154
-129 161 -129 4 0 -39 45 -96 101 -56 55 -98 99 -93 97 6 -2 22 -10 38 -17z
m-377 -63 c-9 -35 -18 -67 -18 -73 -2 -15 -105 -190 -150 -257 -21 -32 -57
-90 -79 -130 -22 -40 -38 -64 -35 -53 3 11 7 38 11 60 3 21 9 42 14 45 4 3 52
91 106 195 103 201 154 289 163 281 3 -3 -3 -34 -12 -68z m161 -60 c50 -61
194 -273 256 -378 57 -96 96 -152 97 -137 0 10 -51 109 -86 166 -15 24 -22 41
-17 38 9 -6 75 -104 173 -260 24 -37 45 -66 47 -64 4 5 -39 149 -66 217 l-21
55 101 -105 101 -104 -24 -21 c-13 -11 -91 -76 -173 -145 -81 -69 -160 -135
-174 -146 -36 -31 -17 -49 67 -64 37 -6 132 -25 212 -42 80 -17 161 -33 181
-35 38 -5 53 4 40 25 -8 13 -281 76 -379 88 -29 4 -54 10 -57 14 -2 3 72 70
164 147 l168 141 24 -39 c45 -74 49 -76 33 -20 -9 30 -20 65 -25 78 -26 69 14
13 72 -100 45 -89 89 -214 117 -335 l19 -82 -27 -43 c-41 -62 -103 -125 -218
-220 -136 -113 -238 -164 -447 -227 -30 -9 -105 -7 -121 3 -5 3 -59 12 -120
21 -124 18 -282 71 -456 154 -196 92 -231 130 -268 292 -13 52 -33 134 -45
181 l-23 85 32 105 c18 57 59 156 91 219 l59 115 13 -50 c28 -107 109 -240
190 -316 47 -44 48 -43 44 49 -2 49 2 103 9 126 12 41 74 154 105 191 16 19
16 19 10 1 -3 -11 -8 -47 -12 -80 -6 -54 -4 -60 9 -49 8 7 28 43 43 80 16 38
70 152 122 256 64 130 95 204 99 239 6 44 9 50 18 34 6 -10 25 -36 43 -58z
m208 -158 c-2 -3 3 -11 11 -18 8 -7 14 -10 14 -6 0 4 12 -6 28 -23 15 -16 35
-33 45 -36 9 -4 17 -14 17 -24 0 -10 7 -27 16 -38 14 -19 57 -145 51 -151 -1
-1 -23 28 -47 66 -25 39 -68 103 -96 143 -28 40 -60 86 -70 102 l-19 30 26
-20 c15 -11 26 -22 24 -25z m265 -232 c82 -84 105 -112 92 -107 -18 6 -191
178 -203 202 -11 21 -11 21 17 -3 15 -14 58 -55 94 -92z m902 -23 c15 -44 27
-98 27 -120 l-1 -40 -8 45 c-19 110 -69 171 -86 104 -10 -41 3 -168 20 -203
20 -39 63 -44 70 -8 3 12 7 31 9 42 3 11 5 1 6 -23 1 -41 -21 -102 -37 -102
-21 0 -52 35 -69 77 -22 60 -26 254 -5 291 24 41 45 23 74 -63z m-5 -152 c4
-49 2 -73 -5 -73 -6 0 -13 4 -16 8 -12 19 -25 142 -19 173 l7 34 14 -35 c7
-19 16 -67 19 -107z m-176 96 c25 -13 21 -46 -18 -184 -44 -154 -93 -245 -131
-245 -29 0 -52 30 -42 53 5 12 20 63 34 112 13 50 28 104 32 120 7 25 9 17 14
-45 l5 -75 12 40 c7 22 22 81 34 130 28 116 25 113 60 94z m-2346 -184 c-10
-119 17 -194 63 -178 21 8 13 -36 -9 -47 -28 -15 -55 10 -70 64 -14 49 -17
219 -5 261 l8 30 10 -25 c5 -14 6 -60 3 -105z m46 -75 c16 -60 11 -100 -9 -64
-13 25 -27 142 -16 131 5 -5 16 -35 25 -67z m2538 -171 c14 -62 14 -229 1
-263 -13 -36 -46 -34 -70 6 -43 72 -38 210 11 278 16 22 34 38 39 35 4 -3 13
-28 19 -56z m-2504 -162 c44 -44 69 -128 63 -213 -3 -48 -9 -67 -23 -79 -18
-13 -22 -12 -42 12 -25 30 -49 118 -59 215 -11 106 4 122 61 65z m2044 -84 c6
-32 5 -47 -5 -60 -12 -16 -13 -9 -13 52 1 74 3 75 18 8z m-100 -74 l8 -44 8
45 c7 35 10 40 16 25 18 -47 10 -70 -44 -123 -49 -49 -59 -54 -118 -62 -117
-17 -117 -17 -29 60 44 39 94 89 112 110 17 22 33 38 35 36 2 -2 7 -23 12 -47z
m-347 -396 c38 -42 72 -177 71 -288 -1 -159 -70 -622 -123 -825 -11 -41 -24
-93 -28 -115 l-9 -40 -17 40 c-17 39 -17 43 2 110 76 264 139 665 130 825 -6
93 -19 129 -90 233 -22 32 -38 60 -36 61 4 3 62 24 69 25 3 1 17 -11 31 -26z
m-252 -145 c0 -12 6 -29 13 -37 22 -25 60 -454 60 -654 -1 -93 -4 -171 -7
-174 -9 -9 -26 45 -26 85 0 45 -25 387 -45 610 -18 194 -18 192 -5 192 6 0 10
-10 10 -22z m114 -150 c33 -219 42 -338 27 -338 -7 0 -11 -28 -11 -85 0 -47
-4 -85 -9 -85 -4 0 -11 35 -15 78 -4 42 -18 167 -31 276 -27 214 -31 311 -15
301 6 -3 13 1 16 10 4 9 8 14 10 12 2 -2 15 -78 28 -169z m50 41 c14 -83 22
-273 10 -244 -4 11 -54 339 -54 357 0 8 5 7 14 -2 8 -8 21 -58 30 -111z m-196
-44 c-1 -35 -2 -33 -8 15 -5 30 -8 73 -8 95 1 35 2 33 8 -15 5 -30 8 -73 8
-95z m-111 33 c-3 -7 -5 -2 -5 12 0 14 2 19 5 13 2 -7 2 -19 0 -25z m10 -80
c-3 -8 -6 -5 -6 6 -1 11 2 17 5 13 3 -3 4 -12 1 -19z m-38 -75 c5 13 10 -1 17
-41 10 -61 1 -78 -11 -22 -4 17 -10 30 -15 30 -11 0 -20 39 -12 58 5 13 8 9
11 -13 3 -24 5 -26 10 -12z m62 -47 c2 -24 1 -42 -2 -40 -9 5 -16 84 -8 84 4
0 9 -20 10 -44z m19 -77 c0 -6 -4 -7 -10 -4 -5 3 -10 11 -10 16 0 6 5 7 10 4
6 -3 10 -11 10 -16z m-18 -81 c24 -48 49 -121 61 -174 2 -11 -1 -27 -7 -36
-16 -22 -145 -108 -162 -108 -30 0 -11 26 34 47 26 12 62 37 81 55 29 28 32
37 28 71 -6 45 -65 147 -86 147 -7 0 -38 -20 -67 -45 -28 -25 -55 -45 -58 -45
-13 0 -5 28 14 53 22 28 107 87 125 87 6 0 23 -24 37 -52z m-82 -164 c0 -16
-19 2 -33 31 -26 54 -20 66 8 16 14 -23 25 -45 25 -47z m187 4 c-3 -8 -6 -5
-6 6 -1 11 2 17 5 13 3 -3 4 -12 1 -19z m-218 -923 c19 -69 -14 -73 -49 -6
l-19 38 22 11 c27 12 32 7 46 -43z m670 26 c12 -8 12 -15 0 -48 -18 -45 -49
-58 -49 -19 0 30 17 76 27 76 5 0 14 -4 22 -9z m-494 -187 c-31 -28 -78 -55
-125 -73 -79 -31 -209 -56 -250 -49 -15 3 -1 7 35 11 145 18 290 75 350 137
16 17 31 27 34 24 3 -3 -16 -26 -44 -50z m307 -48 c83 -31 191 -47 248 -36 46
8 60 6 46 -7 -4 -5 -49 -8 -99 -8 -69 1 -109 6 -157 23 -81 28 -182 82 -188
101 -3 7 16 -1 42 -18 25 -18 74 -42 108 -55z m-276 -68 c7 -35 13 -86 14
-114 l0 -52 -103 -7 c-100 -6 -165 -1 -198 16 -14 7 -39 76 -39 108 0 5 19 12
43 16 65 10 157 42 212 74 28 16 52 27 54 26 2 -2 9 -32 17 -67z m245 26 c30
-15 95 -34 145 -42 l90 -15 -30 -92 c-17 -51 -38 -103 -47 -116 l-17 -24 -83
29 c-115 39 -169 71 -169 99 1 44 38 187 49 187 4 0 32 -12 62 -26z m95 -421
c35 -79 82 -252 170 -626 14 -60 31 -128 39 -153 13 -44 13 -45 -8 -42 -18 2
-29 24 -65 128 -24 69 -54 184 -67 255 -46 253 -79 372 -124 445 -27 45 -26
50 5 50 21 0 29 -9 50 -57z m-421 12 c65 -8 147 -15 180 -15 34 0 64 -2 67 -5
3 -3 3 -17 0 -32 l-5 -26 -106 7 c-94 6 -203 19 -268 32 -32 6 -31 54 1 54 6
0 65 -7 131 -15z m334 -58 c19 -58 103 -409 137 -577 9 -41 24 -99 34 -127 10
-29 14 -53 9 -53 -14 0 -27 39 -150 445 -42 138 -84 347 -75 372 10 24 23 6
45 -60z m-399 -69 c25 -6 105 -12 177 -13 73 -1 134 -3 137 -6 2 -2 7 -15 11
-28 l7 -24 -148 6 c-176 7 -304 25 -304 43 0 45 14 48 120 22z m674 -143 c8
-22 35 -114 60 -204 26 -91 62 -196 80 -235 36 -75 34 -94 -7 -120 -25 -16
-33 -2 -67 129 -28 102 -120 500 -120 515 0 15 42 -51 54 -85z m-664 20 c52
-8 150 -15 218 -15 120 0 122 0 122 -23 0 -22 -2 -23 -102 -20 -57 2 -165 11
-240 20 -134 17 -138 18 -138 41 0 20 4 23 23 18 12 -4 65 -13 117 -21z m-185
-1429 c17 -26 23 -112 9 -126 -5 -5 -9 11 -9 38 0 26 -8 62 -17 80 -19 37 -6
44 17 8z m655 -45 c13 -32 10 -73 -5 -78 -7 -2 -9 12 -7 37 2 23 -1 47 -8 55
-7 9 -8 15 -2 15 5 0 15 -13 22 -29z m-711 -233 c-10 -51 -19 -109 -20 -128
-1 -19 -3 -27 -6 -17 -4 17 12 167 24 215 3 12 8 22 13 22 4 0 -1 -42 -11 -92z
m627 -26 c-9 -55 -16 -120 -16 -146 0 -25 -4 -46 -10 -46 -5 0 -10 12 -10 28
0 43 20 193 31 236 18 69 21 30 5 -72z"/>
<path d="M3906 6872 c-3 -5 1 -9 9 -9 8 0 12 4 9 9 -3 4 -7 8 -9 8 -2 0 -6 -4
-9 -8z"/>
<path d="M3945 6830 c3 -5 8 -10 11 -10 2 0 4 5 4 10 0 6 -5 10 -11 10 -5 0
-7 -4 -4 -10z"/>
<path d="M4067 6749 c4 -13 8 -18 11 -10 2 7 -1 18 -6 23 -8 8 -9 4 -5 -13z"/>
<path d="M2731 6176 c-10 -12 -8 -18 11 -30 32 -21 143 -62 280 -106 l118 -36
-148 -115 c-81 -63 -147 -121 -147 -129 0 -28 35 -21 82 17 137 111 204 163
242 188 48 32 52 63 11 76 -14 4 -59 18 -100 30 -41 12 -133 44 -204 71 -70
26 -129 48 -131 48 -1 0 -8 -6 -14 -14z"/>
<path d="M3900 5860 c-13 -8 -13 -10 2 -10 9 0 20 5 23 10 8 13 -5 13 -25 0z"/>
<path d="M4015 5850 c-18 -8 -18 -9 5 -9 20 -1 22 -3 10 -11 -8 -5 -23 -10
-33 -10 -10 0 -25 -7 -33 -15 -9 -8 -23 -15 -32 -15 -13 0 -14 2 -4 9 11 7 11
9 -1 14 -10 4 -14 0 -12 -11 2 -9 4 -21 4 -25 1 -4 10 -3 22 3 11 7 32 9 46 5
17 -4 23 -2 18 6 -5 8 2 9 26 4 25 -4 30 -3 19 4 -12 9 -11 11 7 11 12 0 25 5
29 12 5 7 3 8 -6 3 -9 -6 -11 -4 -5 4 4 7 16 11 26 8 11 -3 19 -1 19 4 0 5
-10 9 -22 9 -13 0 -32 2 -43 5 -11 2 -29 0 -40 -5z"/>
<path d="M3875 5801 c-3 -5 -2 -12 3 -15 5 -3 9 1 9 9 0 17 -3 19 -12 6z"/>
<path d="M4060 5780 c-21 -7 -21 -8 -5 -9 11 0 27 4 35 9 18 11 5 11 -30 0z"/>
<path d="M3013 5763 c9 -2 23 -2 30 0 6 3 -1 5 -18 5 -16 0 -22 -2 -12 -5z"/>
<path d="M3073 5763 c9 -2 25 -2 35 0 9 3 1 5 -18 5 -19 0 -27 -2 -17 -5z"/>
<path d="M3963 5763 c9 -2 25 -2 35 0 9 3 1 5 -18 5 -19 0 -27 -2 -17 -5z"/>
<path d="M3130 5750 c0 -5 -10 -10 -22 -10 -13 0 -36 -7 -52 -15 -15 -8 -43
-15 -61 -15 -27 0 -45 -13 -45 -34 0 -1 16 -3 37 -4 20 -2 40 -5 45 -8 4 -3 8
0 8 5 0 6 -15 11 -32 12 -32 0 -32 1 -9 10 14 5 30 8 37 5 7 -3 15 0 18 7 3 9
7 8 14 -2 6 -8 17 -11 28 -7 16 6 16 8 4 16 -8 6 -10 10 -4 10 5 0 15 -5 22
-10 6 -6 10 -7 7 -3 -3 3 2 17 10 30 9 13 11 23 5 23 -5 0 -10 -4 -10 -10z"/>
<path d="M2927 5743 c-10 -9 -9 -23 2 -23 5 0 11 7 15 15 5 15 -5 20 -17 8z"/>
<path d="M2942 5720 c-13 -16 -18 -30 -12 -30 5 0 10 4 10 9 0 5 9 13 20 16
11 3 20 13 20 21 0 22 -14 16 -38 -16z"/>
<path d="M3158 5708 c-10 -10 -14 -18 -9 -18 10 0 36 29 30 34 -2 1 -12 -6
-21 -16z"/>
<path d="M3695 5713 c-69 -17 -170 -31 -303 -39 -62 -4 -115 -11 -118 -15 -10
-17 29 -130 50 -144 28 -17 89 -25 107 -14 12 7 11 9 -2 9 -8 0 -23 6 -34 13
-17 13 -17 15 0 45 23 38 94 77 159 87 26 3 80 17 118 29 l70 23 24 -26 c13
-14 28 -38 33 -53 8 -24 6 -30 -19 -51 -24 -20 -99 -46 -205 -70 -11 -3 16 -5
60 -6 167 -2 253 84 174 174 -43 49 -56 53 -114 38z"/>
<path d="M2901 5704 c-1 -21 34 -62 45 -51 3 3 -3 10 -14 16 -12 6 -23 21 -25
33 -4 22 -4 22 -6 2z"/>
<path d="M3050 5675 c0 -18 45 -21 56 -4 4 8 0 9 -15 4 -12 -4 -21 -2 -21 4 0
6 -4 11 -10 11 -5 0 -10 -7 -10 -15z"/>
<path d="M2978 5643 c12 -2 32 -2 45 0 12 2 2 4 -23 4 -25 0 -35 -2 -22 -4z"/>
<path d="M4889 6008 c-20 -38 -23 -148 -6 -191 18 -41 28 -45 53 -20 14 14 16
31 11 107 -2 50 -8 99 -12 109 -10 24 -32 21 -46 -5z m40 -146 c1 -39 -2 -53
-11 -50 -15 5 -24 150 -12 177 9 20 22 -52 23 -127z"/>
<path d="M2414 5846 c-10 -26 17 -185 35 -206 27 -33 43 -11 43 57 0 88 -58
200 -78 149z m46 -64 c12 -46 13 -140 1 -126 -8 8 -31 131 -31 164 0 23 20 -2
30 -38z"/>
<path d="M7111 8101 c16 -45 6 -168 -21 -256 -20 -66 -45 -117 -165 -339 -56
-103 -47 -106 18 -8 63 94 141 253 168 342 30 98 34 250 6 277 -17 17 -17 17
-6 -16z"/>
<path d="M6771 7729 c-2 -29 -88 -191 -136 -254 -25 -33 -94 -116 -153 -184
-150 -173 -160 -191 -48 -81 115 112 213 235 273 339 46 81 78 164 70 184 -4
7 -6 6 -6 -4z"/>
<path d="M5691 6998 c-3 -58 -116 -243 -267 -436 -31 -40 -55 -75 -52 -77 7
-8 153 177 215 272 72 110 115 205 110 240 l-4 28 -2 -27z"/>
<path d="M6570 6895 c0 -37 -29 -90 -141 -256 -87 -129 -99 -152 -99 -190 -1
-86 -51 -178 -162 -305 -149 -168 -172 -197 -152 -186 12 6 52 44 89 84 168
182 234 288 243 387 4 49 15 69 100 195 126 188 164 271 132 291 -6 4 -10 -5
-10 -20z"/>
<path d="M5761 6830 c28 -78 -30 -211 -196 -450 -58 -85 -111 -163 -116 -172
-21 -39 2 -13 73 80 181 236 248 362 256 476 3 57 1 74 -12 85 -14 12 -15 10
-5 -19z"/>
</g>
</svg>
